<?xml version="1.0" standalone="yes"?>
<svg xmlns="http://www.w3.org/2000/svg" width="512" height="512">
<path style="fill:#000000; stroke:none;" d="M368 215L91 215C69.8268 215 46.9573 212.57 26 215.579C14.6932 217.203 4.9634 222.511 1.10494 234C-0.881805 239.916 0 246.844 0 253C0 269.498 -0.730633 289.421 19 295.211C31.1904 298.789 45.4448 297 58 297L131 297L369 297L309 357L273 393C266.135 399.865 257.907 406.358 255.044 416C250.636 430.845 259.042 442.038 269 452C280.155 463.159 291.153 472.69 308 468.072C316.345 465.784 322.109 458.891 328 453L357 424L470 311L494 287C503.766 277.234 512.147 269.587 511.996 255C511.862 242.023 503.64 234.64 495 226L470 201L357 88L328 59C322.109 53.109 316.345 46.2157 308 43.9283C291.766 39.4781 280.842 48.1581 270 59C259.405 69.5949 250.26 81.1502 255.221 97C258.178 106.45 266.232 113.232 273 120L308 155L368 215z"/>
</svg>
