<?xml version="1.0" standalone="yes"?>
<svg xmlns="http://www.w3.org/2000/svg" width="512" height="512">
<path style="fill:#000000; stroke:none;" d="M234 0.424377C219.174 2.37198 204.527 4.06955 190 7.88428C159.034 16.016 129.879 30.2218 104 49.0108C77.6311 68.1551 54.4432 93.0817 37.6011 121C-22.3738 220.417 -10.0419 352.926 73 436C86.9614 449.967 102.127 462.831 119 473.189C141.697 487.122 166.102 498.15 192 504.625C222.645 512.286 255.616 514.518 287 510.715C324.5 506.169 359.779 493.367 392 473.797C416.794 458.738 438.704 438.587 456.8 416C518.314 339.221 529.724 228.987 485.73 141C468.148 105.836 442.147 75.1104 411 51.2354C385.739 31.8721 356.533 17.7621 326 9C303.437 2.52505 280.383 0 257 0C249.4 0 241.545 -0.566772 234 0.424377M201.001 150.36C205.921 149.492 210.102 152.441 214 155.003C220.959 159.577 227.942 164.156 235 168.576C266.546 188.328 297.921 208.518 329 228.997C336.928 234.221 345.068 239.126 352.999 244.344C357.291 247.168 361.79 250.301 361.79 256C361.79 261.699 357.291 264.832 352.999 267.656C344.734 273.094 336.25 278.205 328 283.667C299.581 302.485 270.461 320.242 242 338.997C234.072 344.221 225.95 349.154 218 354.344C213.784 357.096 209.195 361.198 204 361.746C197.618 362.419 193.599 357.831 192.468 352C190.448 341.582 192 329.595 192 319L192 190C192 180.348 190.627 169.494 192.468 160C193.39 155.247 195.937 151.252 201.001 150.36z"/>
</svg>
